<?xml version="1.0" encoding="utf-8"?>
<svg viewBox="0 0 419.999 400" width="419.999px" height="400px" xmlns="http://www.w3.org/2000/svg">
	<path
		d="M 232.931 323.285 L 298.937 400 L 364.733 352.195 L 300.497 245.916 C 271.485 263.811 243.041 298.498 232.931 323.285 Z M 138.044 399.885 C 192.281 289.27 295.87 207.334 419.999 182.884 L 394.774 105.181 C 244.176 122.187 116.046 213.461 47.476 341.634 L 138.044 399.886 L 138.044 399.885 Z M 157.809 136.079 L 25.114 104.834 L 0 182.315 L 92.133 221.209 C 111.027 202.1 132.144 185.436 155.364 171.197 C 186.817 151.861 214.269 139.072 260.949 123.062 L 250.613 0 L 169.257 0 L 157.809 136.078 L 157.809 136.079 Z"
		fill="#000" transform="matrix(1, 0, 0, 1, 1.4210854715202004e-14, 0)" />
</svg>
